<?xml version="1.0" encoding="UTF-8"?>
<svg width="32px" height="32px" viewBox="0 0 32 32" version="1.1" xmlns="http://www.w3.org/2000/svg" xmlns:xlink="http://www.w3.org/1999/xlink">
    <title>discord</title>
    <g id="页面-1" stroke="none" stroke-width="1" fill="none" fill-rule="evenodd">
        <g id="discord" fill-rule="nonzero">
            <rect id="矩形" fill="#FFFFFF" x="0" y="0" width="32" height="32" rx="16"></rect>
            <path d="M19.3714286,15.047619 C18.5922078,15.047619 17.9428571,15.8941799 17.9428571,16.952381 C17.9428571,18.010582 18.5922078,18.8571429 19.3714286,18.8571429 C20.1506494,18.8571429 20.8,18.010582 20.8,16.952381 C20.8,15.8941799 20.1506494,15.047619 19.3714286,15.047619 L19.3714286,15.047619 Z M12.7047619,15.047619 C11.9255411,15.047619 11.2761905,15.8941799 11.2761905,16.952381 C11.2761905,18.010582 11.9255411,18.8571429 12.7047619,18.8571429 C13.4839827,18.8571429 14.1333333,18.010582 14.1333333,16.952381 C14.1333333,15.8941799 13.4839827,15.047619 12.7047619,15.047619 L12.7047619,15.047619 Z M20.8425629,22.6172845 C20.8425629,22.6172845 20.2588874,21.9259339 19.8211308,21.3333478 C21.863995,20.7407616 22.642229,19.4568249 22.642229,19.4568249 C22.0099139,19.9012645 21.3775988,20.1975576 20.8425629,20.3950863 C20.0643289,20.7407616 19.3347346,20.9382903 18.6051403,21.0864369 C17.097312,21.3827299 15.7354025,21.2839656 14.5680516,21.0864369 C13.6925384,20.8889081 12.9143044,20.6419972 12.2819893,20.3950863 C11.941512,20.2469398 11.552395,20.0987932 11.163278,19.8518823 C11.1146384,19.8025001 11.0659987,19.8025001 11.0173591,19.7531179 C10.9687195,19.7531179 10.9687195,19.7037358 10.9687195,19.7037358 C10.6768818,19.5555892 10.5309629,19.4568249 10.5309629,19.4568249 C10.5309629,19.4568249 11.2605572,20.7407616 13.2547818,21.3333478 C12.7683855,21.9259339 12.2333497,22.6666667 12.2333497,22.6666667 C8.77993648,22.5679023 7.46666667,20.2469398 7.46666667,20.2469398 C7.46666667,15.1605751 9.70408931,11.0124718 9.70408931,11.0124718 C11.941512,9.28409544 14.0816554,9.33347762 14.0816554,9.33347762 L14.2275742,9.53100635 C11.4064761,10.3705034 10.0932063,11.605058 10.0932063,11.605058 C10.0932063,11.605058 10.4336837,11.4075292 11.0173591,11.1606183 C12.6711063,10.4198856 13.9843761,10.2223569 14.5680516,10.1729747 C14.6653308,10.1729747 14.7626101,10.1235925 14.8112497,10.1235925 C15.7840421,9.97544598 16.8541138,9.97544598 17.9728252,10.0742103 C19.4320139,10.2717391 21.0371214,10.6667965 22.642229,11.605058 C22.642229,11.605058 21.4262384,10.4198856 18.7510591,9.58038853 L18.9456176,9.33347762 C18.9456176,9.33347762 21.085761,9.28409544 23.3231837,11.0124718 C23.3231837,11.0124718 25.5606063,15.1605751 25.5606063,20.2469398 C25.6092459,20.1975576 24.2959761,22.5185201 20.8425629,22.6172845 L20.8425629,22.6172845 Z" id="形状" fill="#5965F2"></path>
        </g>
    </g>
</svg>