<?xml version="1.0" encoding="UTF-8"?>
<svg width="32px" height="32px" viewBox="0 0 32 32" version="1.1" xmlns="http://www.w3.org/2000/svg" xmlns:xlink="http://www.w3.org/1999/xlink">
    <title>电报</title>
    <g id="页面-1" stroke="none" stroke-width="1" fill="none" fill-rule="evenodd">
        <g id="电报" fill-rule="nonzero">
            <rect id="矩形" fill="#FFFFFF" x="0" y="0" width="32" height="32" rx="16"></rect>
            <path d="M21.1291716,22.2628873 L23.945548,8.98568397 C24.0605022,8.42368594 23.9934456,8.02134645 23.7443783,7.77866548 C23.495311,7.53598451 23.1664144,7.49128012 22.7576886,7.64455231 L6.20429216,14.0245072 C5.83388436,14.1650067 5.58162389,14.3246652 5.44751075,14.5034828 C5.3133976,14.6823003 5.29743175,14.8515384 5.39961317,15.0111969 C5.50179459,15.1708555 5.70615752,15.2953891 6.01270195,15.3847979 L10.2468462,16.7067705 L20.0754253,10.5184059 C20.3436516,10.3395883 20.5480145,10.3012703 20.688514,10.4034517 C20.7779228,10.4673151 20.7523774,10.5631102 20.6118779,10.6908371 L12.6608831,17.8754709 L12.3543388,22.2437283 C12.6481105,22.2437283 12.9354958,22.1032288 13.2164948,21.8222298 L15.2856694,19.8296913 L19.5772907,22.9909303 C20.3947423,23.4507468 20.912036,23.2080659 21.1291716,22.2628873 L21.1291716,22.2628873 Z" id="路径" fill="#2897D3"></path>
        </g>
    </g>
</svg>