<?xml version="1.0" encoding="UTF-8"?>
<svg width="32px" height="32px" viewBox="0 0 32 32" version="1.1" xmlns="http://www.w3.org/2000/svg" xmlns:xlink="http://www.w3.org/1999/xlink">
    <title>推特</title>
    <g id="页面-1" stroke="none" stroke-width="1" fill="none" fill-rule="evenodd">
        <g id="推特" fill-rule="nonzero">
            <circle id="椭圆形" fill="#FFFFFF" cx="16" cy="16" r="16"></circle>
            <path d="M19.9998346,9.33333333 C18.0308926,9.33333333 16.4474533,10.8434112 16.4474533,12.6962229 C16.4474533,12.9569366 16.4810938,13.2175541 16.5351522,13.4677027 C13.5874531,13.3228208 10.9589746,11.9894646 9.21029569,9.94741017 C8.90240144,10.4466172 8.72595393,11.0200847 8.72595393,11.6457367 C8.72595393,12.8120707 9.35301805,13.8422923 10.3093932,14.4466697 C9.72727906,14.4254753 9.17663829,14.2690824 8.70353823,14.0199598 L8.70353823,14.0614509 C8.70353823,15.695104 9.92397518,17.0497508 11.5522967,17.3625688 C11.2555595,17.4349857 10.9364404,17.4764607 10.6173214,17.4764607 C10.3869001,17.4764607 10.1666201,17.4561801 9.94744056,17.4243244 C10.3981418,18.7577608 11.7072596,19.7261627 13.2683002,19.7580184 C12.0467966,20.6636386 10.5183977,21.1946854 8.8575023,21.1946854 C8.56079895,21.1946854 8.28547856,21.1850661 8,21.1541563 C9.5732642,22.1119128 11.442199,22.664234 13.4559217,22.664234 C19.988576,22.664234 23.5633392,17.5402684 23.5633392,13.0939949 C23.5633392,12.9472532 23.5633392,12.8024675 23.5530793,12.6556938 C24.2443941,12.1767834 24.8490761,11.5820413 25.3333334,10.9158281 C24.6950952,11.1765258 24.0027141,11.3638126 23.2869521,11.4362135 C24.0242155,11.0200847 24.5849129,10.3645168 24.8490761,9.58341778 C24.1669549,9.96863666 23.3971346,10.249631 22.5946895,10.3954267 C21.9461917,9.73883279 21.0224751,9.33333333 19.9998346,9.33333333 Z" id="形状结合-path" fill="#01A0EA"></path>
        </g>
    </g>
</svg>